<mxfile host="app.diagrams.net" modified="2021-12-13T12:09:19.133Z" agent="5.0 (Windows NT 10.0; Win64; x64) AppleWebKit/537.36 (KHTML, like Gecko) Chrome/96.0.4664.93 Safari/537.36" etag="sxMF3EaCEZ8DbjGCAYPA" version="15.9.4" type="github">
  <diagram id="lWgpFkKJ2LQy-1hrMMwB" name="Page-1">
    <mxGraphModel dx="1038" dy="575" grid="1" gridSize="10" guides="1" tooltips="1" connect="1" arrows="1" fold="1" page="1" pageScale="1" pageWidth="1200" pageHeight="1600" math="0" shadow="0">
      <root>
        <mxCell id="0" />
        <mxCell id="1" parent="0" />
        <mxCell id="5eCg7bflJC1CXkOLrecF-1" value="" style="rounded=1;whiteSpace=wrap;html=1;" vertex="1" parent="1">
          <mxGeometry x="110" y="170" width="270" height="100" as="geometry" />
        </mxCell>
        <mxCell id="5eCg7bflJC1CXkOLrecF-2" value="IMAGE" style="rounded=0;whiteSpace=wrap;html=1;" vertex="1" parent="1">
          <mxGeometry x="110" y="130" width="270" height="40" as="geometry" />
        </mxCell>
        <mxCell id="5eCg7bflJC1CXkOLrecF-3" value="hello world" style="rounded=1;whiteSpace=wrap;html=1;" vertex="1" parent="1">
          <mxGeometry x="120" y="220" width="90" height="40" as="geometry" />
        </mxCell>
        <mxCell id="5eCg7bflJC1CXkOLrecF-4" value="run &amp;gt;hello world" style="rounded=1;whiteSpace=wrap;html=1;" vertex="1" parent="1">
          <mxGeometry x="270" y="220" width="90" height="40" as="geometry" />
        </mxCell>
        <mxCell id="5eCg7bflJC1CXkOLrecF-5" value="" style="endArrow=none;html=1;rounded=0;entryX=1.001;entryY=0.322;entryDx=0;entryDy=0;entryPerimeter=0;" edge="1" parent="1" target="5eCg7bflJC1CXkOLrecF-1">
          <mxGeometry width="50" height="50" relative="1" as="geometry">
            <mxPoint x="110" y="200" as="sourcePoint" />
            <mxPoint x="200" y="200" as="targetPoint" />
            <Array as="points" />
          </mxGeometry>
        </mxCell>
        <mxCell id="5eCg7bflJC1CXkOLrecF-6" value="" style="rounded=1;whiteSpace=wrap;html=1;" vertex="1" parent="1">
          <mxGeometry x="550" y="60" width="310" height="440" as="geometry" />
        </mxCell>
        <mxCell id="5eCg7bflJC1CXkOLrecF-7" value="hello world" style="rounded=1;whiteSpace=wrap;html=1;" vertex="1" parent="1">
          <mxGeometry x="570" y="90" width="130" height="60" as="geometry" />
        </mxCell>
        <mxCell id="5eCg7bflJC1CXkOLrecF-8" value="KERNEL" style="rounded=1;whiteSpace=wrap;html=1;" vertex="1" parent="1">
          <mxGeometry x="570" y="210" width="380" height="60" as="geometry" />
        </mxCell>
        <mxCell id="5eCg7bflJC1CXkOLrecF-9" value="RAM" style="rounded=1;whiteSpace=wrap;html=1;" vertex="1" parent="1">
          <mxGeometry x="570" y="350" width="70" height="30" as="geometry" />
        </mxCell>
        <mxCell id="5eCg7bflJC1CXkOLrecF-10" value="Network" style="rounded=1;whiteSpace=wrap;html=1;" vertex="1" parent="1">
          <mxGeometry x="660" y="350" width="75" height="30" as="geometry" />
        </mxCell>
        <mxCell id="5eCg7bflJC1CXkOLrecF-11" value="CPU" style="rounded=1;whiteSpace=wrap;html=1;" vertex="1" parent="1">
          <mxGeometry x="760" y="350" width="70" height="30" as="geometry" />
        </mxCell>
        <mxCell id="5eCg7bflJC1CXkOLrecF-12" value="hello world" style="rounded=1;whiteSpace=wrap;html=1;" vertex="1" parent="1">
          <mxGeometry x="570" y="390" width="150" height="80" as="geometry" />
        </mxCell>
        <mxCell id="5eCg7bflJC1CXkOLrecF-13" value="" style="html=1;shadow=0;dashed=0;align=center;verticalAlign=middle;shape=mxgraph.arrows2.arrow;dy=1;dx=16.6;direction=south;notch=0;" vertex="1" parent="1">
          <mxGeometry x="625" y="150" width="20" height="60" as="geometry" />
        </mxCell>
        <mxCell id="5eCg7bflJC1CXkOLrecF-14" value="" style="html=1;shadow=0;dashed=0;align=center;verticalAlign=middle;shape=mxgraph.arrows2.arrow;dy=1;dx=16.6;direction=south;notch=0;" vertex="1" parent="1">
          <mxGeometry x="625" y="150" width="20" height="60" as="geometry" />
        </mxCell>
        <mxCell id="5eCg7bflJC1CXkOLrecF-16" value="" style="html=1;shadow=0;dashed=0;align=center;verticalAlign=middle;shape=mxgraph.arrows2.arrow;dy=0.6;dx=40;direction=south;notch=0;" vertex="1" parent="1">
          <mxGeometry x="610" y="270" width="30" height="80" as="geometry" />
        </mxCell>
        <mxCell id="5eCg7bflJC1CXkOLrecF-17" value="" style="endArrow=none;html=1;rounded=0;entryX=0.5;entryY=1;entryDx=0;entryDy=0;" edge="1" parent="1" target="5eCg7bflJC1CXkOLrecF-2">
          <mxGeometry width="50" height="50" relative="1" as="geometry">
            <mxPoint x="244.5" y="270" as="sourcePoint" />
            <mxPoint x="244.5" y="180" as="targetPoint" />
            <Array as="points">
              <mxPoint x="244.5" y="250" />
            </Array>
          </mxGeometry>
        </mxCell>
        <mxCell id="5eCg7bflJC1CXkOLrecF-19" value="Running Process" style="text;html=1;strokeColor=none;fillColor=none;align=center;verticalAlign=middle;whiteSpace=wrap;rounded=0;" vertex="1" parent="1">
          <mxGeometry x="735" y="110" width="60" height="30" as="geometry" />
        </mxCell>
        <mxCell id="5eCg7bflJC1CXkOLrecF-20" value="FS Snapshot" style="text;html=1;strokeColor=none;fillColor=none;align=center;verticalAlign=middle;whiteSpace=wrap;rounded=0;" vertex="1" parent="1">
          <mxGeometry x="130" y="180" width="100" height="20" as="geometry" />
        </mxCell>
        <mxCell id="5eCg7bflJC1CXkOLrecF-23" value="Startup Command" style="text;html=1;strokeColor=none;fillColor=none;align=center;verticalAlign=middle;whiteSpace=wrap;rounded=0;" vertex="1" parent="1">
          <mxGeometry x="260" y="180" width="100" height="20" as="geometry" />
        </mxCell>
        <mxCell id="5eCg7bflJC1CXkOLrecF-24" value="Hard Drive Segment for this process" style="text;html=1;strokeColor=none;fillColor=none;align=center;verticalAlign=middle;whiteSpace=wrap;rounded=0;" vertex="1" parent="1">
          <mxGeometry x="730" y="400" width="110" height="60" as="geometry" />
        </mxCell>
        <mxCell id="5eCg7bflJC1CXkOLrecF-25" value="" style="rounded=1;whiteSpace=wrap;html=1;" vertex="1" parent="1">
          <mxGeometry x="230" y="780" width="540" height="130" as="geometry" />
        </mxCell>
        <mxCell id="5eCg7bflJC1CXkOLrecF-27" value="" style="shape=partialRectangle;whiteSpace=wrap;html=1;right=0;top=0;bottom=0;fillColor=none;routingCenterX=-0.5;" vertex="1" parent="1">
          <mxGeometry x="360" y="780" width="120" height="130" as="geometry" />
        </mxCell>
        <mxCell id="5eCg7bflJC1CXkOLrecF-28" value="" style="shape=partialRectangle;whiteSpace=wrap;html=1;right=0;top=0;bottom=0;fillColor=none;routingCenterX=-0.5;" vertex="1" parent="1">
          <mxGeometry x="550" y="780" width="120" height="130" as="geometry" />
        </mxCell>
        <mxCell id="5eCg7bflJC1CXkOLrecF-29" value="&lt;font style=&quot;font-size: 20px&quot;&gt;docker&lt;/font&gt;" style="text;html=1;strokeColor=none;fillColor=none;align=center;verticalAlign=middle;whiteSpace=wrap;rounded=0;" vertex="1" parent="1">
          <mxGeometry x="260" y="820" width="90" height="50" as="geometry" />
        </mxCell>
        <mxCell id="5eCg7bflJC1CXkOLrecF-30" value="logs" style="text;html=1;strokeColor=none;fillColor=none;align=center;verticalAlign=middle;whiteSpace=wrap;rounded=0;fontSize=20;" vertex="1" parent="1">
          <mxGeometry x="425" y="830" width="60" height="30" as="geometry" />
        </mxCell>
        <mxCell id="5eCg7bflJC1CXkOLrecF-31" value="container_id" style="text;html=1;strokeColor=none;fillColor=none;align=center;verticalAlign=middle;whiteSpace=wrap;rounded=0;fontSize=20;" vertex="1" parent="1">
          <mxGeometry x="570" y="830" width="150" height="30" as="geometry" />
        </mxCell>
        <mxCell id="5eCg7bflJC1CXkOLrecF-32" value="&lt;b&gt;&lt;i&gt;&lt;u&gt;To get the logs from the container&lt;/u&gt;&lt;/i&gt;&lt;/b&gt;" style="text;html=1;strokeColor=#6c8ebf;fillColor=#dae8fc;align=center;verticalAlign=middle;whiteSpace=wrap;rounded=0;fontSize=20;" vertex="1" parent="1">
          <mxGeometry x="110" y="630" width="410" height="80" as="geometry" />
        </mxCell>
        <mxCell id="5eCg7bflJC1CXkOLrecF-34" value="&lt;b&gt;&lt;u&gt;&lt;i&gt;Execute an additional command in a container&lt;/i&gt;&lt;/u&gt;&lt;/b&gt;" style="text;html=1;strokeColor=#82b366;fillColor=#d5e8d4;align=center;verticalAlign=middle;whiteSpace=wrap;rounded=0;fontSize=20;" vertex="1" parent="1">
          <mxGeometry x="110" y="1000" width="470" height="60" as="geometry" />
        </mxCell>
        <mxCell id="5eCg7bflJC1CXkOLrecF-35" value="" style="rounded=1;whiteSpace=wrap;html=1;fontSize=20;" vertex="1" parent="1">
          <mxGeometry x="230" y="1120" width="790" height="110" as="geometry" />
        </mxCell>
        <mxCell id="5eCg7bflJC1CXkOLrecF-36" value="" style="shape=partialRectangle;whiteSpace=wrap;html=1;right=0;top=0;bottom=0;fillColor=none;routingCenterX=-0.5;fontSize=20;" vertex="1" parent="1">
          <mxGeometry x="370" y="1120" width="130" height="110" as="geometry" />
        </mxCell>
        <mxCell id="5eCg7bflJC1CXkOLrecF-37" value="" style="shape=partialRectangle;whiteSpace=wrap;html=1;right=0;top=0;bottom=0;fillColor=none;routingCenterX=-0.5;fontSize=20;" vertex="1" parent="1">
          <mxGeometry x="520" y="1120" width="120" height="110" as="geometry" />
        </mxCell>
        <mxCell id="5eCg7bflJC1CXkOLrecF-38" value="" style="shape=partialRectangle;whiteSpace=wrap;html=1;right=0;top=0;bottom=0;fillColor=none;routingCenterX=-0.5;fontSize=20;" vertex="1" parent="1">
          <mxGeometry x="700" y="1120" width="110" height="110" as="geometry" />
        </mxCell>
        <mxCell id="5eCg7bflJC1CXkOLrecF-39" value="" style="shape=partialRectangle;whiteSpace=wrap;html=1;right=0;top=0;bottom=0;fillColor=none;routingCenterX=-0.5;fontSize=20;" vertex="1" parent="1">
          <mxGeometry x="860" y="1120" width="120" height="110" as="geometry" />
        </mxCell>
        <mxCell id="5eCg7bflJC1CXkOLrecF-40" value="docker" style="text;html=1;strokeColor=none;fillColor=none;align=center;verticalAlign=middle;whiteSpace=wrap;rounded=0;fontSize=20;" vertex="1" parent="1">
          <mxGeometry x="270" y="1160" width="60" height="30" as="geometry" />
        </mxCell>
        <mxCell id="5eCg7bflJC1CXkOLrecF-41" value="exec" style="text;html=1;strokeColor=none;fillColor=none;align=center;verticalAlign=middle;whiteSpace=wrap;rounded=0;fontSize=20;" vertex="1" parent="1">
          <mxGeometry x="405" y="1160" width="60" height="30" as="geometry" />
        </mxCell>
        <mxCell id="5eCg7bflJC1CXkOLrecF-42" value="-it" style="text;html=1;strokeColor=none;fillColor=none;align=center;verticalAlign=middle;whiteSpace=wrap;rounded=0;fontSize=20;" vertex="1" parent="1">
          <mxGeometry x="580" y="1160" width="60" height="30" as="geometry" />
        </mxCell>
        <mxCell id="5eCg7bflJC1CXkOLrecF-43" value="container_id" style="text;html=1;strokeColor=none;fillColor=none;align=center;verticalAlign=middle;whiteSpace=wrap;rounded=0;fontSize=20;" vertex="1" parent="1">
          <mxGeometry x="750" y="1160" width="60" height="30" as="geometry" />
        </mxCell>
        <mxCell id="5eCg7bflJC1CXkOLrecF-44" value="command" style="text;html=1;strokeColor=none;fillColor=none;align=center;verticalAlign=middle;whiteSpace=wrap;rounded=0;fontSize=20;" vertex="1" parent="1">
          <mxGeometry x="910" y="1160" width="60" height="30" as="geometry" />
        </mxCell>
        <mxCell id="5eCg7bflJC1CXkOLrecF-45" value="&lt;font style=&quot;font-size: 12px&quot;&gt;reference the docker client&lt;/font&gt;" style="text;html=1;strokeColor=none;fillColor=none;align=center;verticalAlign=middle;whiteSpace=wrap;rounded=0;fontSize=20;" vertex="1" parent="1">
          <mxGeometry x="250" y="1280" width="100" height="50" as="geometry" />
        </mxCell>
        <mxCell id="5eCg7bflJC1CXkOLrecF-46" value="&lt;font style=&quot;font-size: 16px&quot;&gt;Run another command&lt;/font&gt;" style="text;html=1;strokeColor=none;fillColor=none;align=center;verticalAlign=middle;whiteSpace=wrap;rounded=0;fontSize=20;" vertex="1" parent="1">
          <mxGeometry x="390" y="1260" width="100" height="50" as="geometry" />
        </mxCell>
        <mxCell id="5eCg7bflJC1CXkOLrecF-47" value="&lt;font style=&quot;font-size: 15px&quot;&gt;Allow us to provide input to the container&lt;/font&gt;" style="text;html=1;strokeColor=none;fillColor=none;align=center;verticalAlign=middle;whiteSpace=wrap;rounded=0;fontSize=20;" vertex="1" parent="1">
          <mxGeometry x="570" y="1280" width="100" height="50" as="geometry" />
        </mxCell>
        <mxCell id="5eCg7bflJC1CXkOLrecF-48" value="&lt;font style=&quot;font-size: 15px&quot;&gt;ID of the container&lt;/font&gt;" style="text;html=1;strokeColor=none;fillColor=none;align=center;verticalAlign=middle;whiteSpace=wrap;rounded=0;fontSize=20;" vertex="1" parent="1">
          <mxGeometry x="730" y="1280" width="100" height="50" as="geometry" />
        </mxCell>
        <mxCell id="5eCg7bflJC1CXkOLrecF-49" value="&lt;font style=&quot;font-size: 16px&quot;&gt;command to execute&lt;/font&gt;" style="text;html=1;strokeColor=none;fillColor=none;align=center;verticalAlign=middle;whiteSpace=wrap;rounded=0;fontSize=20;" vertex="1" parent="1">
          <mxGeometry x="900" y="1280" width="100" height="50" as="geometry" />
        </mxCell>
      </root>
    </mxGraphModel>
  </diagram>
</mxfile>
